<svg width="28" height="28" viewBox="0 0 28 28" fill="none" xmlns="http://www.w3.org/2000/svg">
<rect width="28" height="28" fill="#B5122E"/>
<path fill-rule="evenodd" clip-rule="evenodd" d="M13.6038 3.27536L14 3L14.3962 3.27536C16.4319 4.69007 18.046 6.66989 19.0111 8.98903C21.3302 9.95411 23.31 11.5681 24.7246 13.6038L25 14.0001L24.7246 14.3963C23.3099 16.432 21.3301 18.046 19.011 19.0111C18.0459 21.3302 16.4319 23.31 14.3962 24.7246L14 25L13.6038 24.7246C11.5681 23.31 9.95407 21.3302 8.98898 19.0111C6.66986 18.046 4.69006 16.432 3.27536 14.3963L3 14.0001L3.27536 13.6038C4.69005 11.5681 6.66983 9.95411 8.98892 8.98903C9.954 6.66989 11.5681 4.69007 13.6038 3.27536ZM19.6176 10.8203C21.0558 11.6124 22.3094 12.6994 23.2965 14.0001C22.0026 15.705 20.2509 17.0428 18.2257 17.8304C16.9164 18.3396 15.4917 18.6193 14 18.6193C13.1283 18.6193 12.2798 18.5238 11.464 18.3429L12.2573 19.8925C12.8276 19.9687 13.4094 20.0079 14 20.0079C15.0962 20.0079 16.1614 19.8726 17.1797 19.6177C16.3877 21.0558 15.3007 22.3094 14 23.2965C12.2951 22.0026 10.9573 20.2509 10.1697 18.2258C9.66049 16.9165 9.38077 15.4917 9.38077 14C9.38077 13.1283 9.47628 12.2798 9.65712 11.464L8.10754 12.2573C8.0314 12.8277 7.99213 13.4094 7.99213 14C7.99213 15.0962 8.12742 16.1615 8.3824 17.1798C6.94422 16.3878 5.69063 15.3008 4.70352 14.0001C5.99738 12.2951 7.74909 10.9574 9.77422 10.1698C11.0835 9.66055 12.5083 9.38083 14 9.38083C14.8874 9.38083 15.7508 9.47982 16.5802 9.66707L15.7716 8.11149C15.192 8.0328 14.6006 7.99219 14 7.99219C12.9038 7.99219 11.8385 8.12748 10.8202 8.38245C11.6123 6.94425 12.6993 5.69064 14 4.70352C15.7049 5.9974 17.0427 7.74915 17.8303 9.77432C18.3395 11.0836 18.6192 12.5083 18.6192 14C18.6192 14.8717 18.5237 15.7203 18.3428 16.5361L19.8924 15.7428C19.9686 15.1724 20.0079 14.5907 20.0079 14C20.0079 12.9038 19.8726 11.8386 19.6176 10.8203Z" fill="white"/>
<path d="M14.0224 17.06C15.7 17.06 17.06 15.7 17.06 14.0224C17.06 13.408 16.8777 12.8363 16.5641 12.3583C16.6042 12.4716 16.626 12.5935 16.626 12.7205C16.626 13.3197 16.1403 13.8054 15.5412 13.8054C14.942 13.8054 14.4563 13.3197 14.4563 12.7205C14.4563 12.1214 14.942 11.6356 15.5412 11.6356C15.7269 11.6356 15.9017 11.6823 16.0546 11.7646C15.5163 11.2798 14.8038 10.9847 14.0224 10.9847C12.3447 10.9847 10.9847 12.3447 10.9847 14.0224C10.9847 15.7 12.3447 17.06 14.0224 17.06Z" fill="white"/>
</svg>
