<svg width="24" height="24" viewBox="0 0 24 24" fill="none" xmlns="http://www.w3.org/2000/svg">
<path d="M18.4762 4H5.52381C4.68223 4 4 4.68223 4 5.52381V7.42857H20V5.52381C20 4.68223 19.3178 4 18.4762 4Z" fill="#8D9DB1"/>
<path d="M4 7.42857H3V8.42857H4V7.42857ZM20 7.42857V8.42857H21V7.42857H20ZM18.4762 3H5.52381V5H18.4762V3ZM5.52381 3C4.12994 3 3 4.12994 3 5.52381H5C5 5.23451 5.23451 5 5.52381 5V3ZM3 5.52381V18.4762H5V5.52381H3ZM3 18.4762C3 19.87 4.12993 21 5.52381 21V19C5.23453 19 5 18.7655 5 18.4762H3ZM5.52381 21H18.4762V19H5.52381V21ZM18.4762 21C19.87 21 21 19.87 21 18.4762H19C19 18.7655 18.7655 19 18.4762 19V21ZM21 18.4762V5.52381H19V18.4762H21ZM21 5.52381C21 4.12993 19.87 3 18.4762 3V5C18.7655 5 19 5.23453 19 5.52381H21ZM4 8.42857H20V6.42857H4V8.42857ZM3 5.52381V7.42857H5V5.52381H3ZM21 7.42857V5.52381H19V7.42857H21Z" fill="#8D9DB1"/>
</svg>
