<svg width="11" height="11" viewBox="0 0 11 11" fill="none" xmlns="http://www.w3.org/2000/svg">
<path d="M5.5 1C2.99286 1 1 2.99286 1 5.5C1 8.00714 2.99286 10 5.5 10C8.00714 10 10 8.00714 10 5.5C10 2.99286 8.00714 1 5.5 1ZM5.5 9.35714C3.37857 9.35714 1.64286 7.62143 1.64286 5.5C1.64286 3.37857 3.37857 1.64286 5.5 1.64286C7.62143 1.64286 9.35714 3.37857 9.35714 5.5C9.35714 7.62143 7.62143 9.35714 5.5 9.35714Z" fill="white"/>
<path d="M5.5 9.35714C3.37857 9.35714 1.64286 7.62143 1.64286 5.5C1.64286 3.37857 3.37857 1.64286 5.5 1.64286C7.62143 1.64286 9.35714 3.37857 9.35714 5.5C9.35714 7.62143 7.62143 9.35714 5.5 9.35714Z" fill="#FF0000"/>
<path d="M7.23571 7.75L5.5 6.01429L3.76429 7.75L3.25 7.23571L4.98571 5.5L3.25 3.76429L3.76429 3.25L5.5 4.98571L7.23571 3.25L7.75 3.76429L6.01429 5.5L7.75 7.23571L7.23571 7.75Z" fill="white"/>
</svg>
