<svg width="24" height="24" viewBox="0 0 24 24" fill="none" xmlns="http://www.w3.org/2000/svg">
<path d="M12.0009 13.9092C13.0552 13.9092 13.91 13.0545 13.91 12.0002C13.91 10.9458 13.0552 10.0911 12.0009 10.0911C10.9465 10.0911 10.0918 10.9458 10.0918 12.0002C10.0918 13.0545 10.9465 13.9092 12.0009 13.9092Z" stroke="#8D9DB1" stroke-width="0.9375" stroke-linecap="round" stroke-linejoin="round"/>
<path d="M16.7091 13.9091C16.6244 14.101 16.5991 14.3139 16.6365 14.5204C16.674 14.7268 16.7724 14.9173 16.9191 15.0673L16.9573 15.1055C17.0756 15.2237 17.1695 15.364 17.2335 15.5185C17.2976 15.673 17.3305 15.8387 17.3305 16.0059C17.3305 16.1732 17.2976 16.3388 17.2335 16.4933C17.1695 16.6478 17.0756 16.7882 16.9573 16.9064C16.8391 17.0247 16.6987 17.1186 16.5442 17.1826C16.3897 17.2467 16.2241 17.2796 16.0568 17.2796C15.8896 17.2796 15.7239 17.2467 15.5694 17.1826C15.4149 17.1186 15.2746 17.0247 15.1564 16.9064L15.1182 16.8682C14.9682 16.7215 14.7777 16.6231 14.5713 16.5856C14.3649 16.5482 14.1519 16.5735 13.96 16.6582C13.7718 16.7388 13.6113 16.8728 13.4982 17.0435C13.3851 17.2143 13.3245 17.4143 13.3236 17.6191V17.7273C13.3236 18.0648 13.1895 18.3885 12.9509 18.6272C12.7122 18.8659 12.3885 19 12.0509 19C11.7134 19 11.3896 18.8659 11.151 18.6272C10.9123 18.3885 10.7782 18.0648 10.7782 17.7273V17.67C10.7733 17.4594 10.7051 17.2551 10.5825 17.0837C10.4599 16.9123 10.2886 16.7818 10.0909 16.7091C9.89897 16.6244 9.68606 16.5991 9.47963 16.6365C9.27319 16.674 9.0827 16.7724 8.93273 16.9191L8.89455 16.9573C8.77634 17.0756 8.63598 17.1695 8.48147 17.2335C8.32696 17.2976 8.16135 17.3305 7.99409 17.3305C7.82683 17.3305 7.66122 17.2976 7.50671 17.2335C7.35221 17.1695 7.21184 17.0756 7.09364 16.9573C6.9753 16.8391 6.88143 16.6987 6.81738 16.5442C6.75333 16.3897 6.72036 16.2241 6.72036 16.0568C6.72036 15.8896 6.75333 15.7239 6.81738 15.5694C6.88143 15.4149 6.9753 15.2746 7.09364 15.1564L7.13182 15.1182C7.27852 14.9682 7.37694 14.7777 7.41437 14.5713C7.4518 14.3649 7.42653 14.1519 7.34182 13.96C7.26115 13.7718 7.12721 13.6113 6.95648 13.4982C6.78575 13.3851 6.58568 13.3245 6.38091 13.3236H6.27273C5.93518 13.3236 5.61146 13.1895 5.37277 12.9509C5.13409 12.7122 5 12.3885 5 12.0509C5 11.7134 5.13409 11.3896 5.37277 11.151C5.61146 10.9123 5.93518 10.7782 6.27273 10.7782H6.33C6.54063 10.7733 6.74491 10.7051 6.91628 10.5825C7.08765 10.4599 7.21818 10.2886 7.29091 10.0909C7.37562 9.89897 7.40089 9.68606 7.36346 9.47963C7.32603 9.27319 7.22761 9.0827 7.08091 8.93273L7.04273 8.89455C6.92439 8.77634 6.83052 8.63598 6.76647 8.48147C6.70242 8.32696 6.66945 8.16135 6.66945 7.99409C6.66945 7.82683 6.70242 7.66122 6.76647 7.50671C6.83052 7.35221 6.92439 7.21184 7.04273 7.09364C7.16093 6.9753 7.3013 6.88143 7.4558 6.81738C7.61031 6.75333 7.77593 6.72036 7.94318 6.72036C8.11044 6.72036 8.27605 6.75333 8.43056 6.81738C8.58507 6.88143 8.72543 6.9753 8.84364 7.09364L8.88182 7.13182C9.0318 7.27852 9.22228 7.37694 9.42872 7.41437C9.63515 7.4518 9.84806 7.42653 10.04 7.34182H10.0909C10.2791 7.26115 10.4396 7.12721 10.5527 6.95648C10.6658 6.78575 10.7265 6.58568 10.7273 6.38091V6.27273C10.7273 5.93518 10.8614 5.61146 11.1 5.37277C11.3387 5.13409 11.6625 5 12 5C12.3375 5 12.6613 5.13409 12.9 5.37277C13.1386 5.61146 13.2727 5.93518 13.2727 6.27273V6.33C13.2735 6.53477 13.3342 6.73484 13.4473 6.90557C13.5604 7.0763 13.7209 7.21024 13.9091 7.29091C14.101 7.37562 14.3139 7.40089 14.5204 7.36346C14.7268 7.32603 14.9173 7.22761 15.0673 7.08091L15.1055 7.04273C15.2237 6.92439 15.364 6.83052 15.5185 6.76647C15.673 6.70242 15.8387 6.66945 16.0059 6.66945C16.1732 6.66945 16.3388 6.70242 16.4933 6.76647C16.6478 6.83052 16.7882 6.92439 16.9064 7.04273C17.0247 7.16093 17.1186 7.3013 17.1826 7.4558C17.2467 7.61031 17.2796 7.77593 17.2796 7.94318C17.2796 8.11044 17.2467 8.27605 17.1826 8.43056C17.1186 8.58507 17.0247 8.72543 16.9064 8.84364L16.8682 8.88182C16.7215 9.0318 16.6231 9.22228 16.5856 9.42872C16.5482 9.63515 16.5735 9.84806 16.6582 10.04V10.0909C16.7388 10.2791 16.8728 10.4396 17.0435 10.5527C17.2143 10.6658 17.4143 10.7265 17.6191 10.7273H17.7273C18.0648 10.7273 18.3885 10.8614 18.6272 11.1C18.8659 11.3387 19 11.6625 19 12C19 12.3375 18.8659 12.6613 18.6272 12.9C18.3885 13.1386 18.0648 13.2727 17.7273 13.2727H17.67C17.4652 13.2735 17.2652 13.3342 17.0944 13.4473C16.9237 13.5604 16.7898 13.7209 16.7091 13.9091Z" stroke="#8D9DB1" stroke-width="0.9375" stroke-linecap="round" stroke-linejoin="round"/>
</svg>
